#!OML:ASF I:\salsa\salsa 7_09\Patient 1\Session 1\dancerfemale.ASF
:FULLY-SPECIFIED
:DEGREES
1379
root 13.0102 15.9131 -1.66917 -603.799 1159.56 105.105
lowerback -7.33591 1.3981 -0.520592
upperback -10.8457 2.35467 -8.93295
thorax -7.03561 1.18048 -9.34191
lowerneck 0.416087 9.25626 -3.83001
upperneck 20.2544 12.4277 8.12969
head 5.26324 6.69827 3.66921
rclavicle 1.70955e-014 -1.43125e-014
rhumerus -82.2669 -9.70547 -64.0541
rradius 30.2509
rwrist -1.13017
rhand 4.77814 -314.567
rfingers 7.12502
rthumb 30.1583 17.8748
lclavicle 1.70955e-014 -1.43125e-014
lhumerus -44.209 -30.4088 111.592
lradius 106.408
lwrist -8.71357
lhand -7.28821 30.2415
lfingers 7.12502
lthumb 18.5936 -300.627
rfemur -36.4919 -7.80216 23.4473
rtibia 35.2996
rfoot -27.3698 -24.8552
rtoes 25.3246
lfemur -4.03265 9.46398 -34.9223
ltibia 40.2382
lfoot 5.4356 -4.42483
ltoes -42.6369
1380
root 13.2182 15.925 -1.71027 -605.637 1160.6 103.388
lowerback -6.69544 0.297706 -0.184255
upperback -11.4142 0.812293 -8.25513
thorax -8.28925 0.35329 -8.88278
lowerneck -0.011245 8.75274 -4.3216
upperneck 19.8989 11.6215 8.57574
head 5.20482 6.27697 3.86674
rclavicle -3.18055e-015 2.06736e-014
rhumerus -82.9066 -9.08727 -60.2648
rradius 32.0907
rwrist -2.32319
rhand 5.00601 -314.997
rfingers 7.12502
rthumb 30.3757 17.4842
lclavicle -3.18055e-015 2.06736e-014
lhumerus -44.3272 -29.5448 112.489
lradius 104.266
lwrist -10.3263
lhand -7.1789 28.7228
lfingers 7.12502
lthumb 18.6988 -302.156
rfemur -35.2185 -7.60234 24.3112
rtibia 34.1017
rfoot -25.69 -25.5422
rtoes 20.6387
lfemur -6.73349 10.9014 -32.5839
ltibia 45.5207
lfoot 8.14034 -8.61169
ltoes -44.2781
1381
root 13.4072 15.9277 -1.74368 -609.525 1162.7 99.8239
lowerback -5.88764 -0.649553 0.825679
upperback -11.6549 -0.538454 -7.15306
thorax -9.23262 -0.417475 -8.25874
lowerneck -0.71665 7.95179 -4.88097
upperneck 19.0255 10.4369 8.78287
head 5.0784 5.63427 3.98526
rclavicle 3.57812e-015 -2.22639e-014
rhumerus -82.7774 -8.57607 -57.1492
rradius 34.8403
rwrist -4.76484
rhand 5.19969 -315.658
rfingers 7.12502
rthumb 30.5604 16.8576
lclavicle 3.57812e-015 -2.22639e-014
lhumerus -43.5455 -28.9815 112.872
lradius 101.951
lwrist -11.6371
lhand -7.35288 27.8338
lfingers 7.12502
lthumb 18.5314 -303.029
rfemur -33.4289 -6.52743 25.9323
rtibia 33.0341
rfoot -25.9278 -24.7771
rtoes 21.7093
lfemur -9.72199 12.7729 -29.2838
ltibia 51.1354
lfoot 10.2185 -13.1464
ltoes -47.9141
1382
root 13.5746 15.9156 -1.76986 -621.541 1165.22 88.2295
lowerback -4.91433 -1.54228 2.09791
upperback -11.6345 -1.78796 -5.91268
thorax -9.96726 -1.14831 -7.57145
lowerneck -1.39809 6.79618 -5.77773
upperneck 17.4258 8.75585 9.3155
head 4.73847 4.73666 4.21232
rclavicle 5.96354e-015 2.8625e-014
rhumerus -81.9603 -8.59805 -54.3596
rradius 38.1262
rwrist -7.66165
rhand 5.38826 -316.13
rfingers 7.12502
rthumb 30.7402 16.4189
lclavicle 5.96354e-015 2.8625e-014
lhumerus -42.5758 -28.322 112.611
lradius 99.5471
lwrist -12.8271
lhand -7.24631 27.412
lfingers 7.12502
lthumb 18.6339 -303.46
rfemur -31.5486 -5.94513 28.4048
rtibia 31.8962
rfoot -25.5623 -23.5458
rtoes 21.178
lfemur -12.9307 13.6977 -25.8907
ltibia 56.7476
lfoot 11.0367 -15.3929
ltoes -50.0567
1383
root 13.7183 15.8735 -1.79254 -661.744 1166.89 48.3751
lowerback -3.84294 -2.37341 3.25326
upperback -11.5184 -2.90781 -4.70633
thorax -10.6336 -1.79355 -6.812
lowerneck -1.63692 5.26633 -6.7067
upperneck 15.1759 6.58381 10.1412
head 4.18662 3.60473 4.49215
rclavicle 1.98785e-016 2.46493e-014
rhumerus -80.7832 -9.21104 -52.002
rradius 41.988
rwrist -10.5603
rhand 5.93935 -316.992
rfingers 7.12502
rthumb 31.2655 15.657
lclavicle 1.98785e-016 2.46493e-014
lhumerus -41.8824 -27.3288 111.986
lradius 97.4061
lwrist -13.8212
lhand -6.82129 27.054
lfingers 7.12502
lthumb 19.0427 -303.858
rfemur -29.7557 -5.71972 31.1815
rtibia 30.795
rfoot -25.009 -21.8836
rtoes 20.3656
lfemur -16.0342 14.0189 -22.5895
ltibia 61.9539
lfoot 10.4264 -11.9276
ltoes -47.2994
1384
root 13.8383 15.8394 -1.83378 -695.757 1165.12 14.2071
lowerback -3.37005 -3.10811 3.17545
upperback -11.3234 -3.90853 -3.97713
thorax -10.7622 -2.25695 -5.87232
lowerneck -1.2341 3.37678 -7.62964
upperneck 12.1938 3.96983 11.307
head 3.39256 2.24987 4.85299
rclavicle 1.59028e-015 2.62396e-014
rhumerus -79.1391 -10.3837 -50.7456
rradius 46.4987
rwrist -13.7287
rhand 6.40616 -318.095
rfingers 7.12502
rthumb 31.7103 14.6414
lclavicle 1.59028e-015 2.62396e-014
lhumerus -41.166 -26.2708 110.863
lradius 95.4776
lwrist -14.3253
lhand -7.13944 26.6268
lfingers 7.12502
lthumb 18.7367 -304.256
rfemur -28.8519 -5.43296 32.4696
rtibia 30.1397
rfoot -24.4208 -19.8101
rtoes 19.9686
lfemur -19.6391 14.2353 -21.3429
ltibia 66.3101
lfoot 7.89806 -8.48837
ltoes -44.7934
